<svg version="1.2" xmlns="http://www.w3.org/2000/svg" viewBox="0 0 284 81" width="284" height="81">
	<title>revuele-logo-svg</title>
	<style>
		.s0 { fill: #000000 } 
	</style>
	<g id="Layer">
		<path id="Layer" class="s0" d="m92.4 53.7h-25.6v-1.4h3.3v-42.5h-3.3v-1.3h24.9v2.6 6.6h-0.8c-0.4-3.5-0.7-5-1.6-6.3-0.5-0.8-1.7-1.5-3-1.6h-0.5-1-0.3-8.9v19.6h8.2c1 0 2-0.5 2.5-1 0.6-1.1 1-2.1 1.2-4.6h0.8v12.2h-0.8c-0.2-1.7-0.4-3-1.2-4.2-0.4-0.6-1.5-1.2-2.5-1.2h-8.2v21.7h6.4 4.6c1.6 0 2.9-0.7 3.6-2.3 0.8-2 1-4.5 1.3-6.9h0.9v8.2z"/>
		<path id="Layer" class="s0" d="m255.1 53.7h-25.5v-1.4h3.3v-42.5h-3.3v-1.3h24.9v2.6 6.6h-0.7c-0.6-3.5-0.9-5-1.8-6.3-0.4-0.8-1.7-1.5-3-1.6h-0.4-1-0.4-8.8v19.6h8.2c1 0 2-0.5 2.4-1 0.7-1.1 1-2.1 1.2-4.6h0.8v12.2h-0.8c-0.2-1.7-0.4-3-1.2-4.2-0.3-0.6-1.4-1.2-2.4-1.2h-8.2v21.7h6.4 4.6c1.5 0 2.8-0.7 3.5-2.3 1-2 1-4.5 1.3-6.9h0.9v8.2z"/>
		<path id="Layer" class="s0" d="m192.9 51.3v2.4h-25.5v-1.4h3.3v-42.5h-3.3v-1.3h24.8v2.6 6.6h-0.6c-0.6-3.5-0.9-5-1.8-6.3-0.5-0.8-1.7-1.5-3-1.6h-0.5-1-0.3-8.9v19.6h8.2c1 0 2-0.5 2.5-1 0.6-1.1 1-2.1 1.2-4.6h0.8v12.2h-0.8c-0.2-1.7-0.4-3-1.2-4.2-0.3-0.6-1.5-1.2-2.5-1.2h-8.2v21.7h6.5 4.5c1.6 0 2.9-0.7 3.6-2.3 1-2 1-4.5 1.3-6.9h0.9v8.2z"/>
		<path id="Layer" fill-rule="evenodd" class="s0" d="m62.3 52.3v1.3h-9.1l-14-23.3h-1.9v22h3.7v1.3h-12.6v-1.3h3.3v-42.5h-3.3v-1.3h16.5c7 0 12.7 4.3 12.7 11.1 0 5.6-4.8 10.1-10.8 10.4 0.4 0-1.3 0-1.4 0.1l13.8 22.2c0 0 3.1 0 3.1 0zm-19-23.3c6 0 8.3-4.5 8.3-9.4 0-5.5-3.4-9.8-8.1-9.8h-6.2v19.2z"/>
		<path id="Layer" class="s0" d="m109.3 17.9c-1.6-2.4-2.6-3.4-3.7-4.5-3.6-3.5-6.7-5.2-9.5-10.3-0.5-0.9-1.1-2.9-0.2-1.9 0.2 0.5 0.7 0.9 0.9 1.1 2.6 3.1 4.3 3.5 6.8 5.3 2.4 1.7 3.7 2.5 5.2 6.8 0.2 0.8 0.4 1.8 0.5 2.7 0.2 0.6 0.2 1.1 0 0.8z"/>
		<path id="Layer" class="s0" d="m224.6 53.6h-26.2v-1.3h3.5v-42.5h-3.5v-1.3h14v1.3h-4.7v42.5h9.5 0.2 1.3c1.6 0 3-0.5 3.7-2.2 0.7-1.5 1-3.6 1.4-7.1h0.8v7.9z"/>
		<path id="Layer" class="s0" d="m162.8 9.8h-3.3v32.9c0 6.5-4.8 11.6-11.6 11.6-7.8 0-13.8-5.6-13.8-13.5v-31h-3.5v-1.3h12.7v1.3h-3.5v33.2c0 5.2 3.8 9.3 8.9 9.3 5.5 0 9.2-4.2 9.2-9.7v-32.8h-4.5v-1.3h9.4v1.3z"/>
		<path id="Layer" class="s0" d="m115.1 46.4l9.5-36.6h-4.1v-1.3h8.7v1.3h-2.7l-11.7 43.8h-3.6l-6.2-21.4-2.3-7.6c-0.8-2.8-1.6-5.4-2.6-7.9-1.6-2.9-3.3-5.5-4.9-7.1l0.6-0.7c4.1 3.6 9.1 7.8 11.2 11.6 0.6 1.1 1.2 2.4 1.7 3.3 2.2 7.6 4.4 15 6.4 22.6z"/>
		<path id="Layer" fill-rule="evenodd" class="s0" d="m156.3 73.5q0-0.5 0.1-0.9 0.1-0.4 0.4-0.8 0.2-0.4 0.7-0.8 0.4-0.3 1-0.7-0.3-0.5-0.6-0.9-0.2-0.3-0.4-0.6-0.1-0.4-0.2-0.7-0.1-0.2-0.1-0.5 0.1-0.6 0.2-1 0.2-0.5 0.6-0.9 0.4-0.4 1-0.6 0.6-0.2 1.4-0.2 0.8 0 1.3 0.2 0.6 0.1 0.9 0.4 0.4 0.3 0.5 0.7 0.2 0.5 0.2 1 0 0.5-0.2 0.9-0.1 0.4-0.5 0.8-0.3 0.4-0.9 0.8-0.5 0.4-1.3 0.8 0.3 0.3 0.6 0.7 0.4 0.4 0.7 0.8 0.4 0.4 0.8 0.7 0.3 0.4 0.7 0.7 0.2-0.2 0.3-0.5 0.2-0.3 0.3-0.6 0.1-0.3 0.1-0.7 0-0.3 0.1-0.7v-0.3q0 0 0-0.1 0-0.1 0.1-0.1 0.1 0 0.2-0.1 0.1 0 0.3 0 0.2 0 0.3 0 0.2 0.1 0.2 0.1 0.1 0 0.2 0.1 0 0 0 0.1v0.3q0 0.4-0.1 0.9-0.1 0.4-0.2 0.9-0.1 0.4-0.3 0.8-0.2 0.4-0.5 0.8 0.4 0.3 0.7 0.5 0.2 0.2 0.4 0.3 0.2 0.1 0.4 0.2 0.1 0 0.2 0 0.1 0 0.1 0 0.1 0 0.2 0.1 0 0 0 0.1 0.1 0.1 0.1 0.3 0 0.2-0.1 0.3 0 0.2 0 0.2 0 0.1-0.1 0.1 0 0.1-0.1 0.1-0.2 0-0.4 0-0.2 0-0.4 0-0.2-0.1-0.4-0.2-0.3-0.2-0.6-0.4-0.4-0.3-0.9-0.7-0.3 0.3-0.7 0.6-0.4 0.2-0.8 0.4-0.5 0.2-1 0.3-0.4 0.1-1 0.1-0.5 0-1-0.1-0.5-0.1-0.9-0.3-0.4-0.2-0.7-0.4-0.3-0.3-0.5-0.6-0.2-0.4-0.4-0.8 0-0.5 0-0.9zm1.4-0.2q0 0.5 0.2 0.8 0.1 0.4 0.4 0.7 0.3 0.2 0.7 0.4 0.5 0.1 1 0.1 0.4 0 0.7 0 0.3-0.1 0.6-0.2 0.3-0.2 0.6-0.3 0.2-0.2 0.5-0.4-0.5-0.4-0.9-0.8-0.4-0.4-0.8-0.8-0.4-0.4-0.8-0.8-0.4-0.5-0.7-0.8-0.4 0.2-0.7 0.5-0.3 0.3-0.4 0.5-0.2 0.3-0.3 0.6-0.1 0.2-0.1 0.5zm1-5.9q0 0.3 0.1 0.5 0 0.2 0.2 0.5 0.1 0.3 0.3 0.6 0.2 0.3 0.4 0.6 0.6-0.3 1-0.6 0.4-0.3 0.7-0.6 0.3-0.3 0.4-0.5 0.1-0.3 0.1-0.6 0-0.3-0.1-0.5-0.1-0.2-0.3-0.4-0.2-0.2-0.5-0.2-0.3-0.2-0.7-0.1-0.4 0-0.7 0.1-0.3 0.1-0.5 0.3-0.2 0.2-0.3 0.4-0.1 0.3-0.1 0.5z"/>
		<path id="Layer" class="s0" d="m192.3 74.8q0 0.1-0.1 0.2 0 0.1 0 0.2 0 0.1 0 0.2-0.1 0-0.2 0.1-0.1 0.1-0.3 0.3-0.3 0.1-0.7 0.3-0.4 0.2-0.9 0.3-0.5 0.1-1.2 0.1-1 0-1.9-0.3-0.8-0.4-1.5-1.1-0.6-0.7-0.9-1.8-0.3-1-0.3-2.4 0-1.4 0.3-2.4 0.4-1.1 1-1.9 0.7-0.7 1.5-1.1 0.9-0.4 2-0.4 0.5 0 0.9 0.1 0.5 0.1 0.9 0.2 0.3 0.1 0.6 0.3 0.3 0.2 0.4 0.3 0.2 0.1 0.2 0.2 0 0.1 0 0.1 0.1 0.1 0.1 0.2 0 0.1 0 0.3 0 0.2 0 0.3 0 0.1-0.1 0.2 0 0.1-0.1 0.1 0 0.1-0.1 0-0.1 0-0.3-0.1-0.2-0.2-0.5-0.4-0.4-0.2-0.9-0.4-0.4-0.1-1.1-0.1-0.8 0-1.4 0.3-0.5 0.3-1 0.8-0.4 0.6-0.6 1.5-0.3 0.8-0.3 1.9 0 1 0.2 1.8 0.3 0.9 0.7 1.4 0.4 0.5 1 0.8 0.6 0.3 1.4 0.3 0.7 0 1.2-0.1 0.5-0.2 0.8-0.4 0.3-0.2 0.6-0.4 0.2-0.2 0.3-0.1 0.1 0 0.1 0 0.1 0 0.1 0.1 0 0.1 0 0.2 0.1 0.1 0 0.3z"/>
		<path id="Layer" fill-rule="evenodd" class="s0" d="m213.4 75.9q0.1 0.2 0.1 0.3 0 0.2-0.1 0.2-0.1 0.1-0.2 0.1-0.2 0-0.5 0-0.2 0-0.4 0-0.2 0-0.2 0-0.1-0.1-0.2-0.1 0-0.1 0-0.1l-1-2.8h-4.6l-0.9 2.7q-0.1 0.1-0.1 0.2 0 0-0.1 0.1-0.1 0-0.3 0-0.1 0-0.3 0-0.3 0-0.5 0-0.1 0-0.2-0.1 0 0 0-0.1 0-0.2 0-0.3l3.8-10.6q0-0.1 0.1-0.1 0-0.1 0.1-0.1 0.1-0.1 0.3-0.1 0.2 0 0.4 0 0.3 0 0.5 0 0.2 0 0.3 0.1 0.1 0 0.2 0.1 0 0 0 0.1zm-4.7-9.3l-2 5.7h3.9z"/>
		<path id="Layer" fill-rule="evenodd" class="s0" d="m233.3 76.2q0 0.1 0 0.1 0 0.1-0.1 0.1-0.1 0.1-0.3 0.1-0.1 0-0.4 0-0.2 0-0.4 0-0.1 0-0.2-0.1-0.1 0-0.1-0.1-0.1-0.1-0.1-0.2l-1-2.6q-0.2-0.5-0.4-0.9-0.2-0.4-0.5-0.6-0.2-0.3-0.6-0.5-0.4-0.1-0.9-0.1h-1v4.8q0.1 0.1 0 0.1 0 0.1-0.1 0.1-0.1 0.1-0.2 0.1-0.2 0-0.4 0-0.2 0-0.4 0-0.1 0-0.2-0.1-0.1 0-0.1-0.1 0 0 0-0.1v-10.5q0-0.4 0.1-0.5 0.2-0.1 0.4-0.1h2.4q0.4 0 0.7 0 0.3 0 0.5 0.1 0.6 0.1 1.1 0.3 0.5 0.3 0.9 0.6 0.3 0.4 0.5 0.9 0.1 0.5 0.1 1.1 0 0.5-0.1 1-0.1 0.5-0.4 0.8-0.3 0.4-0.7 0.6-0.4 0.3-0.9 0.4 0.3 0.2 0.5 0.4 0.2 0.1 0.4 0.4 0.2 0.3 0.4 0.6 0.1 0.4 0.3 0.8l1 2.5q0.1 0.3 0.2 0.4 0 0.2 0 0.2zm-2.2-8q0-0.6-0.3-1.1-0.3-0.5-1-0.7-0.2 0-0.5-0.1-0.3 0-0.7 0h-1.3v3.9h1.5q0.6 0 1-0.2 0.4-0.1 0.7-0.4 0.3-0.2 0.4-0.6 0.2-0.4 0.2-0.8z"/>
		<path id="Layer" class="s0" d="m252.3 75.9q0 0.2-0.1 0.3 0 0.1 0 0.2-0.1 0-0.1 0.1-0.1 0-0.1 0h-5.4q-0.2 0-0.4-0.1-0.2-0.2-0.2-0.5v-10.2q0-0.4 0.2-0.5 0.2-0.1 0.4-0.1h5.3q0.1 0 0.1 0 0.1 0 0.1 0.1 0.1 0.1 0.1 0.2 0 0.1 0 0.3 0 0.2 0 0.3 0 0.1-0.1 0.2 0 0.1-0.1 0.1 0 0-0.1 0h-4.4v3.6h3.8q0.1 0 0.1 0.1 0.1 0 0.1 0.1 0 0.1 0.1 0.2 0 0.1 0 0.3 0 0.1 0 0.2 0 0.1-0.1 0.2 0 0.1-0.1 0.1 0 0.1-0.1 0.1h-3.8v4h4.5q0 0 0.1 0.1 0 0 0.1 0.1 0 0.1 0.1 0.2 0 0.1 0 0.3z"/>
		<path id="Layer" fill-rule="evenodd" class="s0" d="m39.1 73.2q0 0.6-0.2 1-0.1 0.5-0.3 0.9-0.3 0.3-0.6 0.6-0.4 0.3-0.8 0.5-0.4 0.1-0.9 0.2-0.5 0.1-1.1 0.1h-3q-0.2 0-0.3-0.1-0.2-0.2-0.2-0.5v-10.2q0-0.3 0.2-0.5 0.1-0.1 0.3-0.1h2.6q1 0 1.6 0.2 0.7 0.2 1.1 0.5 0.4 0.4 0.7 0.9 0.2 0.6 0.2 1.3 0 0.4-0.1 0.7-0.1 0.4-0.3 0.7-0.2 0.3-0.5 0.6-0.3 0.2-0.6 0.4 0.4 0.1 0.8 0.3 0.4 0.3 0.7 0.6 0.3 0.4 0.5 0.9 0.2 0.5 0.2 1zm-2.3-5.1q0-0.4-0.1-0.7-0.1-0.4-0.3-0.6-0.3-0.2-0.7-0.4-0.4-0.1-1-0.1h-1.5v3.7h1.7q0.5 0 0.9-0.1 0.4-0.2 0.6-0.5 0.2-0.2 0.3-0.6 0.1-0.3 0.1-0.7zm0.7 5.2q0-0.5-0.2-0.9-0.1-0.4-0.4-0.6-0.3-0.3-0.8-0.4-0.5-0.2-1.1-0.2h-1.8v4.1h2.1q0.5 0 0.9-0.2 0.4-0.1 0.7-0.3 0.3-0.3 0.5-0.6 0.1-0.4 0.1-0.9z"/>
		<path id="Layer" class="s0" d="m99 72.2q0 1-0.3 1.8-0.3 0.8-0.8 1.4-0.6 0.5-1.4 0.8-0.7 0.3-1.7 0.3-1 0-1.7-0.3-0.8-0.2-1.3-0.7-0.5-0.6-0.8-1.3-0.3-0.8-0.3-1.9v-6.9q0-0.1 0-0.2 0.1 0 0.1 0 0.1-0.1 0.3-0.1 0.1 0 0.3 0 0.2 0 0.4 0 0.1 0 0.2 0.1 0.1 0 0.1 0 0 0.1 0 0.2v6.8q0 0.7 0.2 1.3 0.2 0.6 0.6 1 0.3 0.4 0.8 0.6 0.5 0.2 1.1 0.2 0.7 0 1.2-0.2 0.5-0.2 0.8-0.6 0.4-0.4 0.6-0.9 0.1-0.6 0.1-1.4v-6.8q0-0.1 0.1-0.1 0-0.1 0.1-0.1 0.1-0.1 0.2-0.1 0.1 0 0.4 0 0.2 0 0.3 0 0.1 0 0.2 0.1 0.1 0 0.2 0.1 0 0 0 0.1z"/>
		<path id="Layer" class="s0" d="m119.3 65.7q0 0.2 0 0.3 0 0.1 0 0.2-0.1 0.1-0.1 0.1-0.1 0.1-0.1 0.1h-3.2v9.8q0 0.1 0 0.1-0.1 0.1-0.2 0.1 0 0.1-0.2 0.1-0.1 0-0.4 0-0.2 0-0.3 0-0.2 0-0.2-0.1-0.1 0-0.2-0.1 0 0 0-0.1v-9.8h-3.1q-0.1 0-0.2-0.1 0 0-0.1-0.1 0-0.1 0-0.2 0-0.1 0-0.3 0-0.1 0-0.3 0-0.1 0-0.2 0.1-0.1 0.1-0.1 0.1 0 0.2 0h7.7q0.1 0 0.2 0 0 0.1 0.1 0.1 0 0.1 0 0.2 0.1 0.2 0 0.3z"/>
		<path id="Layer" class="s0" d="m135.8 72.1l-0.1 4.1q0.1 0.1 0 0.2 0 0-0.1 0-0.1 0.1-0.2 0.1-0.2 0-0.4 0-0.2 0-0.3 0-0.2 0-0.3-0.1-0.1 0-0.1 0 0-0.1 0-0.2v-4.1l-3.2-6.4q-0.1-0.2-0.1-0.3 0-0.2 0.1-0.2 0-0.1 0.2-0.1 0.1 0 0.4 0 0.3 0 0.4 0 0.2 0 0.3 0.1 0.1 0 0.1 0 0.1 0.1 0.1 0.2l1.6 3.2q0.2 0.5 0.4 1 0.2 0.5 0.4 1 0.2-0.5 0.5-0.9 0.2-0.5 0.4-1l1.5-3.3q0.1-0.1 0.1-0.1 0-0.1 0.1-0.1 0.1-0.1 0.3-0.1 0.1 0 0.3 0 0.3 0 0.5 0 0.2 0 0.3 0.1 0 0 0 0.2 0 0.1-0.1 0.3z"/>
		<path id="Layer" fill-rule="evenodd" class="s0" d="m78.8 75.9q0.1 0.2 0.1 0.3 0 0.2-0.1 0.2-0.1 0.1-0.2 0.1-0.2 0-0.5 0-0.2 0-0.4 0-0.1 0-0.2 0-0.1-0.1-0.1-0.1-0.1-0.1-0.1-0.1l-1-2.8h-4.6l-0.9 2.7q0 0.1-0.1 0.2 0 0-0.1 0.1-0.1 0-0.2 0-0.2 0-0.4 0-0.3 0-0.4 0-0.2 0-0.2-0.1-0.1 0-0.1-0.1 0-0.2 0.1-0.3l3.7-10.6q0-0.1 0.1-0.1 0-0.1 0.2-0.1 0.1-0.1 0.2-0.1 0.2 0 0.5 0 0.2 0 0.4 0 0.2 0 0.3 0.1 0.1 0 0.2 0.1 0 0 0.1 0.1zm-4.8-9.3l-1.9 5.7h3.8z"/>
		<path id="Layer" class="s0" d="m57.9 75.9q0 0.2 0 0.3 0 0.1-0.1 0.2 0 0-0.1 0.1 0 0-0.1 0h-5.4q-0.2 0-0.4-0.1-0.2-0.2-0.2-0.5v-10.2q0-0.4 0.2-0.5 0.2-0.1 0.4-0.1h5.3q0.1 0 0.1 0 0.1 0 0.1 0.1 0.1 0.1 0.1 0.2 0 0.1 0 0.3 0 0.2 0 0.3 0 0.1-0.1 0.2 0 0.1-0.1 0.1 0 0-0.1 0.1h-4.4v3.5h3.8q0.1 0 0.1 0.1 0.1 0 0.1 0.1 0.1 0.1 0.1 0.2 0 0.1 0 0.3 0 0.1 0 0.2 0 0.2-0.1 0.2 0 0.1-0.1 0.1 0 0.1-0.1 0.1h-3.8v4.1h4.5q0.1-0.1 0.1 0 0.1 0 0.1 0.1 0.1 0.1 0.1 0.2 0 0.1 0 0.3z"/>
	</g>
</svg>